<?xml version="1.0" encoding="UTF-8"?>
<svg xmlns="http://www.w3.org/2000/svg" width="172" height="30" viewBox="0 0 172 30" fill="none">
  <path d="M6.79168 27.6392C11.3128 26.4031 15.794 25.1829 20.2708 23.9491C23.3313 23.1061 25.4004 21.1566 26.0953 17.955C26.7636 14.8808 25.7766 12.2927 23.4221 10.2795C22.9264 9.85691 22.3466 9.5388 21.7114 9.10708C23.1786 6.98711 23.4907 4.63311 22.8179 1.99735C24.5794 1.99735 26.2701 1.99735 27.9608 1.99735C29.5232 1.99735 31.0877 2.0178 32.6501 1.99054C33.5663 1.97463 33.9978 2.40408 33.9978 3.32659C33.9978 11.7633 33.9978 20.2 34 28.6367C34 29.6546 33.4335 30 32.535 30C24.4267 29.9977 16.3185 30.0023 8.21019 29.9954C6.9134 29.9954 6.68768 29.6183 6.79168 27.6392Z" fill="#C6F906"></path>
  <path d="M-1.52588e-05 26.1856C-1.52588e-05 23.0113 -1.52588e-05 19.9597 -1.52588e-05 16.8377C3.53629 15.8538 7.05932 14.87 10.5846 13.8952C12.8573 13.2658 15.1322 12.6364 17.4115 12.0343C19.0336 11.6048 20.5207 11.9025 21.7489 13.1181C24.1079 15.4517 23.3024 19.4371 20.1423 20.5505C17.6815 21.4185 15.1255 22.007 12.6072 22.7068C8.44906 23.8611 4.28648 25.004 -1.52588e-05 26.1856Z" fill="#C6F906"></path>
  <path d="M6.75093 11.5842C6.75093 8.68028 6.74208 5.89002 6.75757 3.09975C6.762 2.4249 7.2245 2.14997 7.79545 1.99091C9.96414 1.38651 12.1196 0.734386 14.2971 0.173151C16.8464 -0.483516 19.1103 0.773013 19.8428 3.17246C20.5354 5.44466 19.3559 7.98044 16.9195 8.7689C13.6089 9.83911 10.2164 10.6389 6.75093 11.5842Z" fill="#C6F906"></path>
  <path d="M44.714 27L51.514 3.2H57.974L64.74 27H60.966L59.402 21.39H50.086L48.522 27H44.714ZM51.004 17.99H58.484L55.016 5.478H54.472L51.004 17.99ZM68.0664 27V10.238H71.5004V12.21H72.0444C72.3164 11.5073 72.7471 10.9973 73.3364 10.68C73.9484 10.34 74.6964 10.17 75.5804 10.17H77.5864V13.332H75.4444C74.3111 13.332 73.3818 13.6493 72.6564 14.284C71.9311 14.896 71.5684 15.848 71.5684 17.14V27H68.0664ZM88.4032 27.476C86.7939 27.476 85.3319 27.136 84.0172 26.456C82.7252 25.776 81.6939 24.79 80.9232 23.498C80.1752 22.206 79.8012 20.6533 79.8012 18.84V18.398C79.8012 16.5847 80.1752 15.0433 80.9232 13.774C81.6939 12.482 82.7252 11.496 84.0172 10.816C85.3319 10.1133 86.7939 9.762 88.4032 9.762C90.0125 9.762 91.3839 10.0567 92.5172 10.646C93.6505 11.2353 94.5572 12.0173 95.2372 12.992C95.9399 13.9667 96.3932 15.0433 96.5972 16.222L93.1972 16.936C93.0839 16.188 92.8459 15.508 92.4832 14.896C92.1205 14.284 91.6105 13.7967 90.9532 13.434C90.2959 13.0713 89.4685 12.89 88.4712 12.89C87.4965 12.89 86.6125 13.1167 85.8192 13.57C85.0485 14.0007 84.4365 14.6353 83.9832 15.474C83.5299 16.29 83.3032 17.2873 83.3032 18.466V18.772C83.3032 19.9507 83.5299 20.9593 83.9832 21.798C84.4365 22.6367 85.0485 23.2713 85.8192 23.702C86.6125 24.1327 87.4965 24.348 88.4712 24.348C89.9445 24.348 91.0665 23.974 91.8372 23.226C92.6079 22.4553 93.0952 21.4807 93.2992 20.302L96.6992 21.084C96.4272 22.24 95.9399 23.3053 95.2372 24.28C94.5572 25.2547 93.6505 26.0367 92.5172 26.626C91.3839 27.1927 90.0125 27.476 88.4032 27.476ZM105.94 27.476C104.739 27.476 103.662 27.272 102.71 26.864C101.781 26.456 101.033 25.8553 100.466 25.062C99.9223 24.2687 99.6503 23.3053 99.6503 22.172C99.6503 21.016 99.9223 20.064 100.466 19.316C101.033 18.5453 101.792 17.9673 102.744 17.582C103.719 17.1967 104.818 17.004 106.042 17.004H111.142V15.916C111.142 14.9413 110.848 14.1593 110.258 13.57C109.669 12.9807 108.762 12.686 107.538 12.686C106.337 12.686 105.419 12.9693 104.784 13.536C104.15 14.1027 103.73 14.8393 103.526 15.746L100.262 14.692C100.534 13.7853 100.965 12.9693 101.554 12.244C102.166 11.496 102.971 10.8953 103.968 10.442C104.966 9.98867 106.167 9.762 107.572 9.762C109.748 9.762 111.46 10.3173 112.706 11.428C113.953 12.5387 114.576 14.114 114.576 16.154V23.056C114.576 23.736 114.894 24.076 115.528 24.076H116.956V27H114.338C113.545 27 112.899 26.796 112.4 26.388C111.902 25.98 111.652 25.4247 111.652 24.722V24.62H111.142C110.961 24.96 110.689 25.3567 110.326 25.81C109.964 26.2633 109.431 26.66 108.728 27C108.026 27.3173 107.096 27.476 105.94 27.476ZM106.45 24.586C107.856 24.586 108.989 24.1893 109.85 23.396C110.712 22.58 111.142 21.4693 111.142 20.064V19.724H106.246C105.317 19.724 104.569 19.928 104.002 20.336C103.436 20.7213 103.152 21.2993 103.152 22.07C103.152 22.8407 103.447 23.4527 104.036 23.906C104.626 24.3593 105.43 24.586 106.45 24.586ZM125.489 27C124.469 27 123.653 26.694 123.041 26.082C122.452 25.47 122.157 24.654 122.157 23.634V13.196H117.533V10.238H122.157V4.696H125.659V10.238H130.657V13.196H125.659V23.022C125.659 23.702 125.977 24.042 126.611 24.042H130.113V27H125.489ZM141.858 27.476C140.158 27.476 138.673 27.1247 137.404 26.422C136.135 25.6967 135.137 24.688 134.412 23.396C133.709 22.0813 133.358 20.5627 133.358 18.84V18.432C133.358 16.6867 133.709 15.168 134.412 13.876C135.115 12.5613 136.089 11.5527 137.336 10.85C138.605 10.1247 140.067 9.762 141.722 9.762C143.331 9.762 144.737 10.1247 145.938 10.85C147.162 11.5527 148.114 12.5387 148.794 13.808C149.474 15.0773 149.814 16.562 149.814 18.262V19.588H136.928C136.973 21.0613 137.461 22.24 138.39 23.124C139.342 23.9853 140.521 24.416 141.926 24.416C143.241 24.416 144.227 24.1213 144.884 23.532C145.564 22.9427 146.085 22.2627 146.448 21.492L149.338 22.988C149.021 23.6227 148.556 24.2913 147.944 24.994C147.355 25.6967 146.573 26.286 145.598 26.762C144.623 27.238 143.377 27.476 141.858 27.476ZM136.962 16.902H146.244C146.153 15.6327 145.7 14.6467 144.884 13.944C144.068 13.2187 143.003 12.856 141.688 12.856C140.373 12.856 139.297 13.2187 138.458 13.944C137.642 14.6467 137.143 15.6327 136.962 16.902ZM161.815 27.476C160.206 27.476 158.744 27.136 157.429 26.456C156.137 25.776 155.106 24.79 154.335 23.498C153.587 22.206 153.213 20.6533 153.213 18.84V18.398C153.213 16.5847 153.587 15.0433 154.335 13.774C155.106 12.482 156.137 11.496 157.429 10.816C158.744 10.1133 160.206 9.762 161.815 9.762C163.425 9.762 164.796 10.0567 165.929 10.646C167.063 11.2353 167.969 12.0173 168.649 12.992C169.352 13.9667 169.805 15.0433 170.009 16.222L166.609 16.936C166.496 16.188 166.258 15.508 165.895 14.896C165.533 14.284 165.023 13.7967 164.365 13.434C163.708 13.0713 162.881 12.89 161.883 12.89C160.909 12.89 160.025 13.1167 159.231 13.57C158.461 14.0007 157.849 14.6353 157.395 15.474C156.942 16.29 156.715 17.2873 156.715 18.466V18.772C156.715 19.9507 156.942 20.9593 157.395 21.798C157.849 22.6367 158.461 23.2713 159.231 23.702C160.025 24.1327 160.909 24.348 161.883 24.348C163.357 24.348 164.479 23.974 165.249 23.226C166.02 22.4553 166.507 21.4807 166.711 20.302L170.111 21.084C169.839 22.24 169.352 23.3053 168.649 24.28C167.969 25.2547 167.063 26.0367 165.929 26.626C164.796 27.1927 163.425 27.476 161.815 27.476Z" fill="#F5F5F5"></path>
</svg>
